<svg data-v-16bc8e0b="" version="1.0" xmlns="http://www.w3.org/2000/svg" width="100%" height="100%" viewBox="0 0 340.000000 250.000000" preserveAspectRatio="xMidYMid meet" color-interpolation-filters="sRGB" class="el-tooltip" style="margin: auto;"><rect data-v-16bc8e0b="" x="0" y="0" width="100%" height="100%" fill="#96bf48" fill-opacity="1"></rect> <rect data-v-16bc8e0b="" x="0" y="0" width="100%" height="100%" fill="url(#watermark)" fill-opacity="1" class="watermarklayer"></rect> <g data-v-16bc8e0b="" fill="#fff" transform="translate(71.23999786376953,101.47155952453613)"><g transform="translate(0,0)"><g><rect x="0" y="0" height="31.56" width="31.56"></rect> <g fill="#96bf48" transform="translate(4.580000190734863,3)"><path transform="translate(-2,27.16)" d="M6.64-18.28L6.64-18.28L6.64-18.28Q6.80-18.32 7.04-18.56L7.04-18.56L7.04-18.56Q7.44-19.04 8.08-19.08L8.08-19.08L8.20-19.08L8.20-19.08Q8.72-19.08 9.16-18.76L9.16-18.76L9.16-18.76Q9.60-18.32 9.68-17.72L9.68-17.72L9.68-17.52L9.68-17.52Q9.68-17 9.32-16.60L9.32-16.60L9.32-16.60Q8.72-15.96 7.92-15.56L7.92-15.56L7.92-15.56Q7.48-15.36 7.06-15.28L7.06-15.28L7.06-15.28Q6.64-15.20 6.16-15.20L6.16-15.20L6.12-15.20L6.12-15.20Q5.64-15.20 5.32-14.84L5.32-14.84L5.32-14.84Q4.96-14.56 4.96-14.04L4.96-14.04L4.96-13.96L4.96-13.96Q4.96-13.56 5.30-13.22L5.30-13.22L5.30-13.22Q5.64-12.88 6.12-12.88L6.12-12.88L7.76-12.88L7.76-12.88Q8.32-12.88 8.78-12.42L8.78-12.42L8.78-12.42Q9.24-11.96 9.24-11.36L9.24-11.36L9.24-11.36Q9.24-10.72 8.78-10.32L8.78-10.32L8.78-10.32Q8.32-9.92 7.76-9.92L7.76-9.92L6.12-9.92L6.12-9.92Q5.28-9.92 4.54-10.22L4.54-10.22L4.54-10.22Q3.80-10.52 3.24-11.08L3.24-11.08L3.24-11.08Q2-12.32 2-13.96L2-13.96L2-14.04L2-14.04Q2-14.80 2.26-15.48L2.26-15.48L2.26-15.48Q2.52-16.16 2.92-16.64L2.92-16.64L2.92-16.64Q2.52-17.20 2.26-17.88L2.26-17.88L2.26-17.88Q2-18.56 2-19.32L2-19.32L2-19.36L2-19.36Q2-20.20 2.32-20.94L2.32-20.94L2.32-20.94Q2.64-21.68 3.24-22.28L3.24-22.28L3.24-22.28Q3.80-22.84 4.54-23.16L4.54-23.16L4.54-23.16Q5.28-23.48 6.12-23.48L6.12-23.48L7.36-23.48L7.36-23.48Q7.96-23.48 8.40-23.02L8.40-23.02L8.40-23.02Q8.84-22.56 8.84-21.96L8.84-21.96L8.84-21.96Q8.84-21.36 8.40-20.94L8.40-20.94L8.40-20.94Q7.96-20.52 7.36-20.52L7.36-20.52L6.12-20.52L6.12-20.52Q5.64-20.52 5.30-20.18L5.30-20.18L5.30-20.18Q4.96-19.84 4.96-19.36L4.96-19.36L4.96-19.32L4.96-19.32Q4.96-18.84 5.30-18.50L5.30-18.50L5.30-18.50Q5.64-18.16 6.12-18.16L6.12-18.16L6.16-18.16L6.16-18.16Q6.44-18.16 6.64-18.28ZM7.68-6.16L4.88-6.16L4.88-6.16Q4.28-6.16 3.84-6.60L3.84-6.60L3.84-6.60Q3.40-7.04 3.40-7.64L3.40-7.64L3.40-7.64Q3.40-8.24 3.84-8.68L3.84-8.68L3.84-8.68Q4.28-9.12 4.88-9.12L4.88-9.12L7.68-9.12L7.68-9.12Q8.28-9.12 8.74-8.68L8.74-8.68L8.74-8.68Q9.20-8.24 9.20-7.64L9.20-7.64L9.20-7.64Q9.20-7.04 8.74-6.60L8.74-6.60L8.74-6.60Q8.28-6.16 7.68-6.16L7.68-6.16ZM14.20-19.68L14.20-19.68L14.20-19.68Q13.64-19.12 13.34-18.38L13.34-18.38L13.34-18.38Q13.04-17.64 13.04-16.80L13.04-16.80L13.04-16.80Q13.04-16.16 12.58-15.70L12.58-15.70L12.58-15.70Q12.12-15.24 11.52-15.24L11.52-15.24L11.52-15.24Q10.88-15.24 10.46-15.70L10.46-15.70L10.46-15.70Q10.04-16.16 10.04-16.80L10.04-16.80L10.04-16.80Q10.04-18.28 10.60-19.56L10.60-19.56L10.60-19.56Q11.16-20.84 12.12-21.84L12.12-21.84L12.12-21.84Q13.12-22.80 14.40-23.32L14.40-23.32L14.40-23.32Q15.68-23.88 17.16-23.88L17.16-23.88L17.28-23.88L17.28-23.88Q18.76-23.88 20.04-23.34L20.04-23.34L20.04-23.34Q21.32-22.80 22.30-21.82L22.30-21.82L22.30-21.82Q23.28-20.84 23.84-19.56L23.84-19.56L23.84-19.56Q24.40-18.28 24.40-16.80L24.40-16.80L24.40-16.80Q24.40-16.16 23.94-15.70L23.94-15.70L23.94-15.70Q23.48-15.24 22.92-15.24L22.92-15.24L22.92-15.24Q22.32-15.24 21.86-15.70L21.86-15.70L21.86-15.70Q21.40-16.16 21.40-16.80L21.40-16.80L21.40-16.80Q21.40-18.56 20.16-19.68L20.16-19.68L20.16-19.68Q19.04-20.92 17.28-20.92L17.28-20.92L17.16-20.92L17.16-20.92Q15.44-20.92 14.20-19.68ZM13.80-13.08L13.80-13.08L13.80-13.08Q14.48-13.76 15.34-14.16L15.34-14.16L15.34-14.16Q16.20-14.56 17.20-14.56L17.20-14.56L17.20-14.56Q18.20-14.56 19.08-14.16L19.08-14.16L19.08-14.16Q19.96-13.76 20.64-13.08L20.64-13.08L20.64-13.08Q21.28-12.44 21.68-11.56L21.68-11.56L21.68-11.56Q22.04-10.68 22.04-9.68L22.04-9.68L22.04-9.68Q22.04-8.68 21.66-7.80L21.66-7.80L21.66-7.80Q21.28-6.92 20.64-6.28L20.64-6.28L20.64-6.28Q19.96-5.60 19.08-5.22L19.08-5.22L19.08-5.22Q18.20-4.84 17.20-4.84L17.20-4.84L17.20-4.84Q16.20-4.84 15.34-5.22L15.34-5.22L15.34-5.22Q14.48-5.60 13.80-6.28L13.80-6.28L13.80-6.28Q12.40-7.60 12.40-9.68L12.40-9.68L12.40-9.68Q12.40-11.76 13.80-13.08ZM19.24-15.24L15.16-15.24L15.16-15.24Q14.56-15.24 14.10-15.70L14.10-15.70L14.10-15.70Q13.64-16.16 13.64-16.80L13.64-16.80L13.64-16.80Q13.64-17.36 14.10-17.82L14.10-17.82L14.10-17.82Q14.56-18.28 15.16-18.28L15.16-18.28L19.24-18.28L19.24-18.28Q19.88-18.28 20.30-17.82L20.30-17.82L20.30-17.82Q20.72-17.36 20.72-16.80L20.72-16.80L20.72-16.80Q20.72-16.16 20.30-15.70L20.30-15.70L20.30-15.70Q19.88-15.24 19.24-15.24L19.24-15.24ZM18.52-11L18.52-11L18.52-11Q17.96-11.56 17.20-11.56L17.20-11.56L17.20-11.56Q16.40-11.56 15.92-11L15.92-11L15.92-11Q15.36-10.44 15.36-9.68L15.36-9.68L15.36-9.68Q15.36-8.92 15.92-8.36L15.92-8.36L15.92-8.36Q16.36-7.88 17.20-7.88L17.20-7.88L17.20-7.88Q18-7.88 18.52-8.36L18.52-8.36L18.52-8.36Q19.08-8.92 19.08-9.68L19.08-9.68L19.08-9.68Q19.08-10.44 18.52-11Z"></path></g></g><g transform="translate(34.56,0)"><g transform="translate(10.160000114440917,3)"><path transform="translate(-2,27.16)" d="M6.12-17.80L4.68-17.80L4.68-17.80Q4.08-17.80 3.64-18.24L3.64-18.24L3.64-18.24Q3.20-18.68 3.20-19.28L3.20-19.28L3.20-19.28Q3.20-19.96 3.64-20.36L3.64-20.36L3.64-20.36Q4.08-20.76 4.68-20.76L4.68-20.76L6.12-20.76L6.12-22.28L6.12-22.28Q6.12-22.88 6.56-23.32L6.56-23.32L6.56-23.32Q7-23.76 7.64-23.76L7.64-23.76L7.64-23.76Q8.24-23.76 8.68-23.32L8.68-23.32L8.68-23.32Q9.12-22.88 9.12-22.28L9.12-22.28L9.12-20.76L10.52-20.76L10.52-20.76Q11.16-20.76 11.58-20.34L11.58-20.34L11.58-20.34Q12-19.92 12-19.28L12-19.28L12-19.28Q12-18.68 11.58-18.24L11.58-18.24L11.58-18.24Q11.16-17.80 10.52-17.80L10.52-17.80L9.12-17.80L9.12-15.32L11.76-15.32L11.76-15.32Q12.36-15.32 12.80-14.86L12.80-14.86L12.80-14.86Q13.24-14.40 13.24-13.80L13.24-13.80L13.24-13.80Q13.24-13.20 12.80-12.76L12.80-12.76L12.80-12.76Q12.36-12.32 11.76-12.32L11.76-12.32L9.12-12.32L9.12-6.48L9.12-6.48Q9.12-5.88 8.68-5.44L8.68-5.44L8.68-5.44Q8.24-5 7.64-5L7.64-5L7.64-5Q7-5 6.56-5.44L6.56-5.44L6.56-5.44Q6.12-5.88 6.12-6.48L6.12-6.48L6.12-12.32L3.48-12.32L3.48-12.32Q2.92-12.32 2.46-12.76L2.46-12.76L2.46-12.76Q2-13.20 2-13.80L2-13.80L2-13.80Q2-14.40 2.46-14.86L2.46-14.86L2.46-14.86Q2.92-15.32 3.48-15.32L3.48-15.32L6.12-15.32L6.12-17.80ZM3.56-8.24L3.56-8.24L3.56-8.24Q3-8.24 2.54-8.70L2.54-8.70L2.54-8.70Q2.08-9.16 2.08-9.76L2.08-9.76L2.08-9.76Q2.08-10.36 2.54-10.80L2.54-10.80L2.54-10.80Q3-11.24 3.56-11.24L3.56-11.24L3.56-11.24Q4.24-11.24 4.66-10.80L4.66-10.80L4.66-10.80Q5.08-10.36 5.08-9.76L5.08-9.76L5.08-9.76Q5.08-9.16 4.66-8.70L4.66-8.70L4.66-8.70Q4.24-8.24 3.56-8.24ZM10.16-9.76L10.16-9.76L10.16-9.76Q10.16-10.36 10.60-10.80L10.60-10.80L10.60-10.80Q11.04-11.24 11.64-11.24L11.64-11.24L11.64-11.24Q12.28-11.24 12.70-10.80L12.70-10.80L12.70-10.80Q13.12-10.36 13.12-9.76L13.12-9.76L13.12-9.76Q13.12-9.16 12.70-8.70L12.70-8.70L12.70-8.70Q12.28-8.24 11.64-8.24L11.64-8.24L11.64-8.24Q11.04-8.24 10.60-8.70L10.60-8.70L10.60-8.70Q10.16-9.16 10.16-9.76Z"></path></g></g><g transform="translate(69.12,0)"><rect x="0" y="0" height="31.56" width="31.56"></rect> <g fill="#96bf48" transform="translate(8.000000267028808,3)"><path transform="translate(-2,27.16)" d="M8.28-19.68L5.40-19.68L5.40-19.68Q4.76-19.68 4.34-20.12L4.34-20.12L4.34-20.12Q3.92-20.56 3.92-21.20L3.92-21.20L3.92-21.20Q3.92-21.80 4.34-22.24L4.34-22.24L4.34-22.24Q4.76-22.68 5.40-22.68L5.40-22.68L8.28-22.68L8.28-23.84L8.28-23.84Q8.28-24.48 8.72-24.90L8.72-24.90L8.72-24.90Q9.16-25.32 9.76-25.32L9.76-25.32L9.76-25.32Q10.40-25.32 10.82-24.90L10.82-24.90L10.82-24.90Q11.24-24.48 11.24-23.84L11.24-23.84L11.24-22.68L14.12-22.68L14.12-22.68Q14.80-22.68 15.22-22.24L15.22-22.24L15.22-22.24Q15.64-21.80 15.64-21.20L15.64-21.20L15.64-21.20Q15.64-20.56 15.22-20.12L15.22-20.12L15.22-20.12Q14.80-19.68 14.12-19.68L14.12-19.68L11.24-19.68L11.24-15.32L14.80-15.32L14.80-15.32Q15.36-15.32 15.82-14.86L15.82-14.86L15.82-14.86Q16.28-14.40 16.28-13.84L16.28-13.84L16.28-13.84Q16.28-13.20 15.82-12.76L15.82-12.76L15.82-12.76Q15.36-12.32 14.80-12.32L14.80-12.32L11.24-12.32L11.24-4.96L11.24-4.96Q11.24-4.36 10.82-3.92L10.82-3.92L10.82-3.92Q10.40-3.48 9.76-3.48L9.76-3.48L9.76-3.48Q9.16-3.48 8.72-3.92L8.72-3.92L8.72-3.92Q8.28-4.36 8.28-4.96L8.28-4.96L8.28-12.32L4.76-12.32L4.76-12.32Q4.20-12.32 3.74-12.76L3.74-12.76L3.74-12.76Q3.28-13.20 3.28-13.84L3.28-13.84L3.28-13.84Q3.28-14.40 3.74-14.86L3.74-14.86L3.74-14.86Q4.20-15.32 4.76-15.32L4.76-15.32L8.28-15.32L8.28-19.68ZM6.48-6.28L6.48-6.28L6.48-6.28Q5.88-5.68 5.12-5.36L5.12-5.36L5.12-5.36Q4.36-5.04 3.48-5.04L3.48-5.04L3.48-5.04Q2.92-5.04 2.46-5.50L2.46-5.50L2.46-5.50Q2-5.96 2-6.56L2-6.56L2-6.56Q2-7.16 2.46-7.60L2.46-7.60L2.46-7.60Q2.92-8.04 3.48-8.04L3.48-8.04L3.48-8.04Q4-8.04 4.36-8.40L4.36-8.40L4.36-8.40Q4.72-8.72 4.72-9.28L4.72-9.28L4.72-10.28L4.72-10.28Q4.72-10.88 5.18-11.32L5.18-11.32L5.18-11.32Q5.64-11.76 6.24-11.76L6.24-11.76L6.24-11.76Q6.84-11.76 7.28-11.32L7.28-11.32L7.28-11.32Q7.72-10.88 7.72-10.28L7.72-10.28L7.72-9.28L7.72-9.28Q7.72-7.52 6.48-6.28ZM15.20-8.40L15.20-8.40L15.20-8.40Q15.56-8.04 16.08-8.04L16.08-8.04L16.08-8.04Q16.64-8.04 17.10-7.60L17.10-7.60L17.10-7.60Q17.56-7.16 17.56-6.56L17.56-6.56L17.56-6.56Q17.56-5.96 17.10-5.50L17.10-5.50L17.10-5.50Q16.64-5.04 16.08-5.04L16.08-5.04L16.08-5.04Q14.32-5.04 13.08-6.28L13.08-6.28L13.08-6.28Q12.48-6.88 12.18-7.64L12.18-7.64L12.18-7.64Q11.88-8.40 11.88-9.28L11.88-9.28L11.88-10.28L11.88-10.28Q11.88-10.88 12.30-11.32L12.30-11.32L12.30-11.32Q12.72-11.76 13.32-11.76L13.32-11.76L13.32-11.76Q13.92-11.76 14.38-11.32L14.38-11.32L14.38-11.32Q14.84-10.88 14.84-10.28L14.84-10.28L14.84-9.28L14.84-9.28Q14.84-8.76 15.20-8.40ZM11.96-17.48L11.96-17.48L11.96-17.48Q11.96-18.12 12.40-18.54L12.40-18.54L12.40-18.54Q12.84-18.96 13.48-18.96L13.48-18.96L13.48-18.96Q14.04-18.96 14.50-18.54L14.50-18.54L14.50-18.54Q14.96-18.12 14.96-17.48L14.96-17.48L14.96-17.48Q14.96-16.88 14.50-16.44L14.50-16.44L14.50-16.44Q14.04-16 13.48-16L13.48-16L13.48-16Q12.84-16 12.40-16.44L12.40-16.44L12.40-16.44Q11.96-16.88 11.96-17.48ZM7.60-17.48L7.60-17.48L7.60-17.48Q7.60-16.88 7.14-16.44L7.14-16.44L7.14-16.44Q6.68-16 6.12-16L6.12-16L6.12-16Q5.52-16 5.08-16.44L5.08-16.44L5.08-16.44Q4.64-16.88 4.64-17.48L4.64-17.48L4.64-17.48Q4.64-18.12 5.08-18.54L5.08-18.54L5.08-18.54Q5.52-18.96 6.12-18.96L6.12-18.96L6.12-18.96Q6.68-18.96 7.14-18.54L7.14-18.54L7.14-18.54Q7.60-18.12 7.60-17.48Z"></path></g></g><g transform="translate(103.68,0)"><g transform="translate(8.55999973297119,3)"><path transform="translate(-2,27.16)" d="M10.96-7.12L3.48-7.12L3.48-7.12Q2.92-7.12 2.46-7.56L2.46-7.56L2.46-7.56Q2-8 2-8.56L2-8.56L2-8.56Q2-9.20 2.46-9.64L2.46-9.64L2.46-9.64Q2.92-10.08 3.48-10.08L3.48-10.08L10.96-10.08L10.96-10.08Q11.56-10.08 12-9.64L12-9.64L12-9.64Q12.44-9.20 12.44-8.56L12.44-8.56L12.44-8.56Q12.44-8 12-7.56L12-7.56L12-7.56Q11.56-7.12 10.96-7.12L10.96-7.12ZM7.40-21.56L7.40-21.56L7.40-21.56Q6.40-20.56 6.40-19.16L6.40-19.16L6.40-19.16Q6.40-18.56 5.96-18.12L5.96-18.12L5.96-18.12Q5.52-17.68 4.92-17.68L4.92-17.68L4.92-17.68Q4.28-17.68 3.84-18.12L3.84-18.12L3.84-18.12Q3.40-18.56 3.40-19.16L3.40-19.16L3.40-19.16Q3.40-20.52 3.92-21.66L3.92-21.66L3.92-21.66Q4.44-22.80 5.28-23.72L5.28-23.72L5.28-23.72Q6.12-24.56 7.30-25.08L7.30-25.08L7.30-25.08Q8.48-25.60 9.84-25.60L9.84-25.60L9.96-25.60L9.96-25.60Q11.08-25.60 12.08-25.22L12.08-25.22L12.08-25.22Q13.08-24.84 13.92-24.20L13.92-24.20L13.92-24.20Q15.68-22.80 16.20-20.68L16.20-20.68L16.20-20.68Q16.24-20.48 16.24-20.28L16.24-20.28L16.24-20.28Q16.24-19.92 16.04-19.60L16.04-19.60L16.04-19.60Q15.72-19.08 15.12-18.92L15.12-18.92L15.12-18.92Q14.92-18.84 14.68-18.84L14.68-18.84L14.68-18.84Q14.32-18.84 14-19.04L14-19.04L14-19.04Q13.48-19.36 13.28-19.96L13.28-19.96L13.28-19.96Q13.04-21.12 12.04-21.88L12.04-21.88L12.04-21.88Q11.20-22.60 9.96-22.60L9.96-22.60L9.84-22.60L9.84-22.60Q8.36-22.60 7.40-21.56ZM11.08-3.16L10-3.16L10-3.16Q9.40-3.16 8.96-3.60L8.96-3.60L8.96-3.60Q8.52-4.04 8.52-4.60L8.52-4.60L8.52-4.60Q8.52-5.24 8.96-5.68L8.96-5.68L8.96-5.68Q9.40-6.12 10-6.12L10-6.12L11.08-6.12L11.08-6.12Q11.56-6.12 12-6.32L12-6.32L12-6.32Q12.44-6.48 12.80-6.84L12.80-6.84L12.80-6.84Q13.48-7.52 13.48-8.52L13.48-8.52L13.48-8.72L13.48-8.72Q13.48-9.68 12.80-10.40L12.80-10.40L12.80-10.40Q12.44-10.72 12-10.92L12-10.92L12-10.92Q11.56-11.08 11.08-11.08L11.08-11.08L7.84-11.08L7.84-11.08Q6.04-11.08 4.76-12.36L4.76-12.36L4.76-12.36Q4.20-12.96 3.86-13.72L3.86-13.72L3.86-13.72Q3.52-14.48 3.52-15.44L3.52-15.44L3.48-15.44L3.48-15.44Q3.48-16.04 3.94-16.48L3.94-16.48L3.94-16.48Q4.40-16.92 5-16.92L5-16.92L5-16.92Q5.64-16.92 6.08-16.48L6.08-16.48L6.08-16.48Q6.52-16.04 6.52-15.44L6.52-15.44L6.48-15.44L6.48-15.44Q6.48-14.88 6.92-14.48L6.92-14.48L6.92-14.48Q7.32-14.08 7.84-14.08L7.84-14.08L11.08-14.08L11.08-14.08Q12.20-14.08 13.16-13.64L13.16-13.64L13.16-13.64Q14.12-13.20 14.86-12.50L14.86-12.50L14.86-12.50Q15.60-11.80 16.02-10.80L16.02-10.80L16.02-10.80Q16.44-9.80 16.44-8.72L16.44-8.72L16.44-8.52L16.44-8.52Q16.44-7.44 16.02-6.44L16.02-6.44L16.02-6.44Q15.60-5.44 14.86-4.70L14.86-4.70L14.86-4.70Q14.12-3.96 13.16-3.56L13.16-3.56L13.16-3.56Q12.20-3.16 11.08-3.16L11.08-3.16ZM14.68-14.84L8.56-14.84L8.56-14.84Q7.96-14.84 7.52-15.30L7.52-15.30L7.52-15.30Q7.08-15.76 7.08-16.36L7.08-16.36L7.08-16.36Q7.08-16.96 7.54-17.38L7.54-17.38L7.54-17.38Q8-17.80 8.56-17.80L8.56-17.80L14.68-17.80L14.68-17.80Q15.28-17.80 15.74-17.38L15.74-17.38L15.74-17.38Q16.20-16.96 16.20-16.36L16.20-16.36L16.20-16.36Q16.20-15.76 15.76-15.30L15.76-15.30L15.76-15.30Q15.32-14.84 14.68-14.84L14.68-14.84Z"></path></g></g><g transform="translate(138.24,0)"><rect x="0" y="0" height="31.56" width="31.56"></rect> <g fill="#96bf48" transform="translate(5.6399996566772455,3)"><path transform="translate(-2,27.16)" d="M16.56-15.96L16.56-17.16L16.56-17.16Q16.56-17.76 17-18.20L17-18.20L17-18.20Q17.44-18.64 18.04-18.64L18.04-18.64L18.04-18.64Q18.64-18.64 19.08-18.20L19.08-18.20L19.08-18.20Q19.52-17.76 19.52-17.16L19.52-17.16L19.52-15.96L20.80-15.96L20.80-15.96Q21.44-15.96 21.86-15.52L21.86-15.52L21.86-15.52Q22.28-15.08 22.28-14.48L22.28-14.48L22.28-14.48Q22.28-13.88 21.86-13.44L21.86-13.44L21.86-13.44Q21.44-13 20.80-13L20.80-13L19.52-13L19.52-10.12L19.52-10.12Q19.52-8.92 19.08-7.92L19.08-7.92L19.08-7.92Q18.64-6.84 17.86-6.08L17.86-6.08L17.86-6.08Q17.08-5.32 16.04-4.88L16.04-4.88L16.04-4.88Q15-4.44 13.80-4.44L13.80-4.44L13.80-4.44Q13.20-4.44 12.76-4.88L12.76-4.88L12.76-4.88Q12.32-5.32 12.32-5.92L12.32-5.92L12.32-5.92Q12.32-6.52 12.76-6.96L12.76-6.96L12.76-6.96Q13.20-7.40 13.80-7.40L13.80-7.40L13.80-7.40Q15-7.40 15.72-8.20L15.72-8.20L15.72-8.20Q16.56-8.92 16.56-10.12L16.56-10.12L16.56-13L12.84-13L12.84-13Q12.24-13 11.80-13.44L11.80-13.44L11.80-13.44Q11.32-13.88 11.32-14.48L11.32-14.48L11.32-14.48Q11.32-15.08 11.78-15.52L11.78-15.52L11.78-15.52Q12.24-15.96 12.84-15.96L12.84-15.96L16.56-15.96ZM5.44-13.28L5.44-13.56L5.44-13.56Q5.44-14.20 5.88-14.64L5.88-14.64L5.88-14.64Q6.32-15.08 6.96-15.08L6.96-15.08L6.96-15.08Q7.56-15.08 8-14.64L8-14.64L8-14.64Q8.44-14.20 8.44-13.56L8.44-13.56L8.44-13.28L10.40-13.28L10.40-13.28Q11-13.28 11.46-12.86L11.46-12.86L11.46-12.86Q11.92-12.44 11.92-11.80L11.92-11.80L11.92-11.80Q11.92-11.20 11.46-10.74L11.46-10.74L11.46-10.74Q11-10.28 10.40-10.28L10.40-10.28L8.44-10.28L8.44-9.32L10.40-9.32L10.40-9.32Q11-9.32 11.46-8.88L11.46-8.88L11.46-8.88Q11.92-8.44 11.92-7.84L11.92-7.84L11.92-7.84Q11.92-7.24 11.46-6.78L11.46-6.78L11.46-6.78Q11-6.32 10.40-6.32L10.40-6.32L3.48-6.32L3.48-6.32Q2.84-6.32 2.42-6.76L2.42-6.76L2.42-6.76Q2-7.20 2-7.84L2-7.84L2-7.84Q2-8.44 2.42-8.88L2.42-8.88L2.42-8.88Q2.84-9.32 3.48-9.32L3.48-9.32L5.44-9.32L5.44-10.28L3.48-10.28L3.48-10.28Q2.84-10.28 2.42-10.74L2.42-10.74L2.42-10.74Q2-11.20 2-11.80L2-11.80L2-11.80Q2-12.44 2.42-12.86L2.42-12.86L2.42-12.86Q2.84-13.28 3.48-13.28L3.48-13.28L5.44-13.28ZM5.44-22.56L5.44-22.84L5.44-22.84Q5.44-23.44 5.88-23.90L5.88-23.90L5.88-23.90Q6.32-24.36 6.96-24.36L6.96-24.36L6.96-24.36Q7.56-24.36 8-23.90L8-23.90L8-23.90Q8.44-23.44 8.44-22.84L8.44-22.84L8.44-22.56L10.40-22.56L10.40-22.56Q11-22.56 11.46-22.12L11.46-22.12L11.46-22.12Q11.92-21.68 11.92-21.08L11.92-21.08L11.92-21.08Q11.92-20.48 11.46-20.02L11.46-20.02L11.46-20.02Q11-19.56 10.40-19.56L10.40-19.56L8.44-19.56L8.44-18.60L10.40-18.60L10.40-18.60Q11-18.60 11.46-18.16L11.46-18.16L11.46-18.16Q11.92-17.72 11.92-17.12L11.92-17.12L11.92-17.12Q11.92-16.48 11.46-16.04L11.46-16.04L11.46-16.04Q11-15.60 10.40-15.60L10.40-15.60L3.48-15.60L3.48-15.60Q2.84-15.60 2.42-16.04L2.42-16.04L2.42-16.04Q2-16.48 2-17.12L2-17.12L2-17.12Q2-17.72 2.42-18.16L2.42-18.16L2.42-18.16Q2.84-18.60 3.48-18.60L3.48-18.60L5.44-18.60L5.44-19.56L3.48-19.56L3.48-19.56Q2.84-19.56 2.42-20.02L2.42-20.02L2.42-20.02Q2-20.48 2-21.08L2-21.08L2-21.08Q2-21.68 2.42-22.12L2.42-22.12L2.42-22.12Q2.84-22.56 3.48-22.56L3.48-22.56L5.44-22.56ZM12.48-10.12L12.48-10.12L12.48-10.12Q12.48-10.76 12.90-11.18L12.90-11.18L12.90-11.18Q13.32-11.60 13.96-11.60L13.96-11.60L13.96-11.60Q14.56-11.60 15-11.18L15-11.18L15-11.18Q15.44-10.76 15.44-10.12L15.44-10.12L15.44-10.12Q15.44-9.52 15-9.08L15-9.08L15-9.08Q14.56-8.64 13.96-8.64L13.96-8.64L13.96-8.64Q13.32-8.64 12.90-9.08L12.90-9.08L12.90-9.08Q12.48-9.52 12.48-10.12Z"></path></g></g><g transform="translate(172.8,0)"><g transform="translate(6.839999465942382,3)"><path transform="translate(-2.04,27.16)" d="M6.60-6.16L6.60-19.16L6.60-19.16Q6.60-19.84 6.34-20.40L6.34-20.40L6.34-20.40Q6.08-20.96 5.66-21.44L5.66-21.44L5.66-21.44Q5.24-21.92 4.66-22.20L4.66-22.20L4.66-22.20Q4.08-22.48 3.44-22.52L3.44-22.52L3.44-22.52Q2.80-22.56 2.40-23L2.40-23L2.40-23Q2.04-23.40 2.04-23.92L2.04-23.92L2.04-24.04L2.04-24.04Q2.08-24.64 2.52-25.08L2.52-25.08L2.52-25.08Q2.92-25.48 3.44-25.48L3.44-25.48L3.56-25.48L3.56-25.48Q6.16-25.28 7.84-23.48L7.84-23.48L7.84-23.48Q8.64-22.60 9.10-21.50L9.10-21.50L9.10-21.50Q9.56-20.40 9.56-19.16L9.56-19.16L9.56-6.16L9.56-6.16Q9.56-5.60 9.12-5.14L9.12-5.14L9.12-5.14Q8.68-4.68 8.08-4.68L8.08-4.68L8.08-4.68Q7.44-4.68 7.02-5.14L7.02-5.14L7.02-5.14Q6.60-5.60 6.60-6.16L6.60-6.16ZM18.44-20.44L12.16-20.44L12.16-20.44Q11.52-20.44 11.08-20.88L11.08-20.88L11.08-20.88Q10.64-21.32 10.64-21.96L10.64-21.96L10.64-21.96Q10.64-22.60 11.08-23.02L11.08-23.02L11.08-23.02Q11.52-23.44 12.16-23.44L12.16-23.44L18.44-23.44L18.44-23.44Q19.08-23.44 19.50-23L19.50-23L19.50-23Q19.92-22.56 19.92-21.96L19.92-21.96L19.92-21.96Q19.92-21.32 19.50-20.88L19.50-20.88L19.50-20.88Q19.08-20.44 18.44-20.44L18.44-20.44ZM18.44-16.20L12.16-16.20L12.16-16.20Q11.52-16.20 11.08-16.64L11.08-16.64L11.08-16.64Q10.64-17.08 10.64-17.68L10.64-17.68L10.64-17.68Q10.64-18.28 11.08-18.72L11.08-18.72L11.08-18.72Q11.52-19.16 12.16-19.16L12.16-19.16L18.44-19.16L18.44-19.16Q19.08-19.16 19.50-18.72L19.50-18.72L19.50-18.72Q19.92-18.28 19.92-17.68L19.92-17.68L19.92-17.68Q19.92-17.08 19.50-16.64L19.50-16.64L19.50-16.64Q19.08-16.20 18.44-16.20L18.44-16.20ZM18.44-11.96L12.16-11.96L12.16-11.96Q11.52-11.96 11.08-12.36L11.08-12.36L11.08-12.36Q10.64-12.76 10.64-13.40L10.64-13.40L10.64-13.40Q10.64-14 11.08-14.46L11.08-14.46L11.08-14.46Q11.52-14.92 12.16-14.92L12.16-14.92L18.44-14.92L18.44-14.92Q19.08-14.92 19.50-14.46L19.50-14.46L19.50-14.46Q19.92-14 19.92-13.40L19.92-13.40L19.92-13.40Q19.92-12.76 19.50-12.36L19.50-12.36L19.50-12.36Q19.08-11.96 18.44-11.96L18.44-11.96ZM12-9.40L12-9.40L12-9.40Q13.36-10.76 15.28-10.76L15.28-10.76L15.28-10.76Q17.24-10.76 18.52-9.40L18.52-9.40L18.52-9.40Q19.88-8.12 19.88-6.20L19.88-6.20L19.88-6.20Q19.88-4.24 18.52-2.96L18.52-2.96L18.52-2.96Q17.24-1.60 15.28-1.60L15.28-1.60L15.28-1.60Q13.36-1.60 12-2.96L12-2.96L12-2.96Q11.44-3.52 11.06-4.36L11.06-4.36L11.06-4.36Q10.68-5.20 10.68-6.20L10.68-6.20L10.68-6.20Q10.68-7.16 11.06-8L11.06-8L11.06-8Q11.44-8.84 12-9.40ZM16.56-4.88L16.56-4.88L16.56-4.88Q17.12-5.36 17.12-6.20L17.12-6.20L17.12-6.20Q17.12-7 16.56-7.44L16.56-7.44L16.56-7.44Q16.12-8 15.28-8L15.28-8L15.28-8Q14.52-8 13.96-7.44L13.96-7.44L13.96-7.44Q13.48-6.96 13.48-6.20L13.48-6.20L13.48-6.20Q13.48-5.40 13.96-4.88L13.96-4.88L13.96-4.88Q14.52-4.36 15.28-4.36L15.28-4.36L15.28-4.36Q16.12-4.36 16.56-4.88ZM15.28-27.16L15.28-27.16L15.28-27.16Q15.88-27.16 16.34-26.72L16.34-26.72L16.34-26.72Q16.80-26.28 16.80-25.64L16.80-25.64L16.80-25.64Q16.80-25.04 16.34-24.60L16.34-24.60L16.34-24.60Q15.88-24.16 15.28-24.16L15.28-24.16L15.28-24.16Q14.68-24.16 14.24-24.60L14.24-24.60L14.24-24.60Q13.80-25.04 13.80-25.64L13.80-25.64L13.80-25.64Q13.80-26.28 14.24-26.72L14.24-26.72L14.24-26.72Q14.68-27.16 15.28-27.16Z"></path></g></g></g> <g transform="translate(34.07499694824219,38.55999946594238)"><!----> <!----> <!----> <g><path transform="translate(-0.18074383037887,8.4045881126173)" d="M5.47-6.87L5.42-6.87L3.52 0L2.35 0L0.18-8.27L1.36-8.27L2.94-1.54L2.98-1.54L4.83-8.27L6.05-8.27L7.91-1.54L7.95-1.54L9.49-8.27L10.71-8.27L8.54 0L7.37 0L5.47-6.87ZM12.79-3.52L12.79-3.52L12.79 0L11.75 0L11.75-6.05L12.74-6.05L12.74-5.02L12.74-5.02Q13.42-6.24 14.46-6.24L14.46-6.24L14.46-6.24Q14.55-6.24 14.64-6.19L14.64-6.19L14.64-6.19Q14.69-6.19 14.73-6.19L14.73-6.19L14.73-5.11L14.32-5.11L14.32-5.11Q12.88-5.02 12.79-3.52ZM15.45-6.05L16.49-6.05L16.49 0L15.45 0L15.45-6.05ZM16.49-8.27L16.49-7.14L15.45-7.14L15.45-8.27L16.49-8.27ZM20.20-6.05L20.20-5.20L19.20-5.20L19.20-1.27L19.20-1.27Q19.20-0.77 19.79-0.77L19.79-0.77L20.20-0.77L20.20 0L20.20 0Q19.93 0 19.57 0L19.57 0L19.57 0Q19.48 0 19.43 0L19.43 0L19.43 0Q18.12 0 18.16-1.17L18.16-1.17L18.16-5.20L17.40-5.20L17.40-6.05L18.16-6.05L18.16-7.73L19.20-7.73L19.20-6.05L20.20-6.05ZM25.30-1.90L25.30-1.90L26.30-1.90L26.30-1.90Q26.12-0.86 25.21-0.23L25.21-0.23L25.21-0.23Q24.72 0.09 23.59 0.09L23.59 0.09L23.59 0.09Q21.01 0 20.88-2.85L20.88-2.85L20.88-2.85Q20.97-6.15 23.77-6.24L23.77-6.24L23.77-6.24Q26.34-6.19 26.39-2.67L26.39-2.67L21.96-2.67L21.96-2.67Q21.96-0.68 23.72-0.68L23.72-0.68L23.72-0.68Q24.99-0.77 25.30-1.90ZM21.96-3.48L21.96-3.48L25.35-3.48L25.35-3.48Q25.21-5.29 23.63-5.29L23.63-5.29L23.63-5.29Q22.14-5.15 21.96-3.48ZM31.72-4.20L31.72-4.20L30.77-4.20L30.77-4.20Q30.82-6.24 33.26-6.24L33.26-6.24L33.26-6.24Q35.43-6.15 35.47-4.52L35.47-4.52L35.47-1.04L35.47-1.04Q35.47-0.68 35.83-0.68L35.83-0.68L35.83-0.68Q35.88-0.68 35.97-0.68L35.97-0.68L35.97-0.68Q36.10-0.72 36.19-0.72L36.19-0.72L36.19 0L36.19 0Q36.10 0 35.97 0L35.97 0L35.97 0Q35.74 0.05 35.61 0.05L35.61 0.05L35.61 0.05Q34.52 0.05 34.57-0.81L34.57-0.81L34.57-0.81Q33.66 0.09 32.35 0.09L32.35 0.09L32.35 0.09Q30.55 0 30.46-1.58L30.46-1.58L30.46-1.58Q30.50-3.21 32.31-3.48L32.31-3.48L33.98-3.66L33.98-3.66Q34.52-3.75 34.52-4.38L34.52-4.38L34.52-4.38Q34.52-5.38 33.08-5.38L33.08-5.38L33.08-5.38Q31.81-5.38 31.72-4.20ZM34.48-2.08L34.48-2.08L34.48-3.07L34.48-3.07Q34.12-2.85 32.81-2.67L32.81-2.67L32.81-2.67Q31.54-2.58 31.54-1.72L31.54-1.72L31.54-1.72Q31.54-0.68 32.58-0.68L32.58-0.68L32.58-0.68Q34.34-0.81 34.48-2.08ZM40.44-8.27L41.48-8.27L41.48 0L40.44 0L40.44-8.27ZM47.08-1.90L47.08-1.90L48.08-1.90L48.08-1.90Q47.90-0.86 46.99-0.23L46.99-0.23L46.99-0.23Q46.50 0.09 45.37 0.09L45.37 0.09L45.37 0.09Q42.79 0 42.66-2.85L42.66-2.85L42.66-2.85Q42.75-6.15 45.55-6.24L45.55-6.24L45.55-6.24Q48.12-6.19 48.17-2.67L48.17-2.67L43.74-2.67L43.74-2.67Q43.74-0.68 45.50-0.68L45.50-0.68L45.50-0.68Q46.77-0.77 47.08-1.90ZM43.74-3.48L43.74-3.48L47.13-3.48L47.13-3.48Q46.99-5.29 45.41-5.29L45.41-5.29L45.41-5.29Q43.92-5.15 43.74-3.48ZM51.60-6.05L51.60-5.20L50.61-5.20L50.61-1.27L50.61-1.27Q50.61-0.77 51.20-0.77L51.20-0.77L51.60-0.77L51.60 0L51.60 0Q51.33 0 50.97 0L50.97 0L50.97 0Q50.88 0 50.83 0L50.83 0L50.83 0Q49.52 0 49.57-1.17L49.57-1.17L49.57-5.20L48.80-5.20L48.80-6.05L49.57-6.05L49.57-7.73L50.61-7.73L50.61-6.05L51.60-6.05ZM54.81-6.05L54.81-5.20L53.82-5.20L53.82-1.27L53.82-1.27Q53.82-0.77 54.40-0.77L54.40-0.77L54.81-0.77L54.81 0L54.81 0Q54.54 0 54.18 0L54.18 0L54.18 0Q54.09 0 54.04 0L54.04 0L54.04 0Q52.73 0 52.78-1.17L52.78-1.17L52.78-5.20L52.01-5.20L52.01-6.05L52.78-6.05L52.78-7.73L53.82-7.73L53.82-6.05L54.81-6.05ZM59.92-1.90L59.92-1.90L60.91-1.90L60.91-1.90Q60.73-0.86 59.83-0.23L59.83-0.23L59.83-0.23Q59.33 0.09 58.20 0.09L58.20 0.09L58.20 0.09Q55.62 0 55.49-2.85L55.49-2.85L55.49-2.85Q55.58-6.15 58.38-6.24L58.38-6.24L58.38-6.24Q60.96-6.19 61.00-2.67L61.00-2.67L56.57-2.67L56.57-2.67Q56.57-0.68 58.34-0.68L58.34-0.68L58.34-0.68Q59.60-0.77 59.92-1.90ZM56.57-3.48L56.57-3.48L59.96-3.48L59.96-3.48Q59.83-5.29 58.24-5.29L58.24-5.29L58.24-5.29Q56.75-5.15 56.57-3.48ZM63.35-3.52L63.35-3.52L63.35 0L62.31 0L62.31-6.05L63.31-6.05L63.31-5.02L63.31-5.02Q63.98-6.24 65.02-6.24L65.02-6.24L65.02-6.24Q65.11-6.24 65.20-6.19L65.20-6.19L65.20-6.19Q65.25-6.19 65.29-6.19L65.29-6.19L65.29-5.11L64.89-5.11L64.89-5.11Q63.44-5.02 63.35-3.52ZM71.44-6.05L71.44-5.20L70.44-5.20L70.44-1.27L70.44-1.27Q70.44-0.77 71.03-0.77L71.03-0.77L71.44-0.77L71.44 0L71.44 0Q71.17 0 70.81 0L70.81 0L70.81 0Q70.72 0 70.67 0L70.67 0L70.67 0Q69.36 0 69.41-1.17L69.41-1.17L69.41-5.20L68.64-5.20L68.64-6.05L69.41-6.05L69.41-7.73L70.44-7.73L70.44-6.05L71.44-6.05ZM72.07-3.03L72.07-3.03L72.07-3.03Q72.25-6.10 74.87-6.24L74.87-6.24L74.87-6.24Q77.49-6.10 77.67-3.03L77.67-3.03L77.67-3.03Q77.49 0 74.87 0.09L74.87 0.09L74.87 0.09Q72.25 0 72.07-3.03ZM73.11-3.03L73.11-3.03L73.11-3.03Q73.25-0.77 74.87-0.72L74.87-0.72L74.87-0.72Q76.50-0.77 76.64-3.03L76.64-3.03L76.64-3.03Q76.50-5.29 74.87-5.33L74.87-5.33L74.87-5.33Q73.25-5.29 73.11-3.03ZM84.27-6.05L84.27-5.20L83.28-5.20L83.28-1.27L83.28-1.27Q83.28-0.77 83.87-0.77L83.87-0.77L84.27-0.77L84.27 0L84.27 0Q84.00 0 83.64 0L83.64 0L83.64 0Q83.55 0 83.50 0L83.50 0L83.50 0Q82.19 0 82.24-1.17L82.24-1.17L82.24-5.20L81.47-5.20L81.47-6.05L82.24-6.05L82.24-7.73L83.28-7.73L83.28-6.05L84.27-6.05ZM90.15-4.11L90.15-4.11L90.15 0L89.15 0L89.15-3.93L89.15-3.93Q89.20-5.33 87.93-5.29L87.93-5.29L87.93-5.29Q86.31-5.24 86.26-3.30L86.26-3.30L86.26 0L85.22 0L85.22-8.27L86.26-8.27L86.26-5.24L86.31-5.24L86.31-5.24Q87.03-6.24 88.07-6.24L88.07-6.24L88.07-6.24Q90.10-6.19 90.15-4.11ZM95.79-1.90L95.79-1.90L96.79-1.90L96.79-1.90Q96.61-0.86 95.70-0.23L95.70-0.23L95.70-0.23Q95.21 0.09 94.08 0.09L94.08 0.09L94.08 0.09Q91.50 0 91.37-2.85L91.37-2.85L91.37-2.85Q91.46-6.15 94.26-6.24L94.26-6.24L94.26-6.24Q96.83-6.19 96.88-2.67L96.88-2.67L92.45-2.67L92.45-2.67Q92.45-0.68 94.21-0.68L94.21-0.68L94.21-0.68Q95.48-0.77 95.79-1.90ZM92.45-3.48L92.45-3.48L95.84-3.48L95.84-3.48Q95.70-5.29 94.12-5.29L94.12-5.29L94.12-5.29Q92.63-5.15 92.45-3.48ZM103.57-6.05L103.57-5.20L102.53-5.20L102.53 0L101.53 0L101.53-5.20L100.72-5.20L100.72-6.05L101.53-6.05L101.53-7.05L101.53-7.05Q101.53-8.40 103.07-8.40L103.07-8.40L103.07-8.40Q103.34-8.40 103.57-8.36L103.57-8.36L103.57-7.50L103.57-7.50Q103.34-7.50 103.11-7.50L103.11-7.50L103.11-7.50Q102.53-7.50 102.53-6.78L102.53-6.78L102.53-6.05L103.57-6.05ZM109.40-6.05L109.40 0L108.45 0L108.45-0.86L108.40-0.90L108.40-0.90Q107.77 0.14 106.46 0.09L106.46 0.09L106.46 0.09Q104.56 0 104.52-1.72L104.52-1.72L104.52-6.05L105.55-6.05L105.55-2.03L105.55-2.03Q105.55-0.68 106.73-0.68L106.73-0.68L106.73-0.68Q108.27-0.72 108.40-2.71L108.40-2.71L108.40-6.05L109.40-6.05ZM113.15-6.05L113.15-5.20L112.15-5.20L112.15-1.27L112.15-1.27Q112.15-0.77 112.74-0.77L112.74-0.77L113.15-0.77L113.15 0L113.15 0Q112.87 0 112.51 0L112.51 0L112.51 0Q112.42 0 112.38 0L112.38 0L112.38 0Q111.07 0 111.11-1.17L111.11-1.17L111.11-5.20L110.34-5.20L110.34-6.05L111.11-6.05L111.11-7.73L112.15-7.73L112.15-6.05L113.15-6.05ZM119.02-6.05L119.02 0L118.07 0L118.07-0.86L118.03-0.90L118.03-0.90Q117.39 0.14 116.08 0.09L116.08 0.09L116.08 0.09Q114.18 0 114.14-1.72L114.14-1.72L114.14-6.05L115.18-6.05L115.18-2.03L115.18-2.03Q115.18-0.68 116.35-0.68L116.35-0.68L116.35-0.68Q117.89-0.72 118.03-2.71L118.03-2.71L118.03-6.05L119.02-6.05ZM121.69-3.52L121.69-3.52L121.69 0L120.65 0L120.65-6.05L121.64-6.05L121.64-5.02L121.64-5.02Q122.32-6.24 123.36-6.24L123.36-6.24L123.36-6.24Q123.45-6.24 123.54-6.19L123.54-6.19L123.54-6.19Q123.58-6.19 123.63-6.19L123.63-6.19L123.63-5.11L123.22-5.11L123.22-5.11Q121.78-5.02 121.69-3.52ZM128.46-1.90L128.46-1.90L129.46-1.90L129.46-1.90Q129.28-0.86 128.37-0.23L128.37-0.23L128.37-0.23Q127.88 0.09 126.75 0.09L126.75 0.09L126.75 0.09Q124.17 0 124.04-2.85L124.04-2.85L124.04-2.85Q124.13-6.15 126.93-6.24L126.93-6.24L126.93-6.24Q129.50-6.19 129.55-2.67L129.55-2.67L125.12-2.67L125.12-2.67Q125.12-0.68 126.88-0.68L126.88-0.68L126.88-0.68Q128.15-0.77 128.46-1.90ZM125.12-3.48L125.12-3.48L128.51-3.48L128.51-3.48Q128.37-5.29 126.79-5.29L126.79-5.29L126.79-5.29Q125.30-5.15 125.12-3.48Z"></path></g></g></g></svg>